Coordinates
version=1
nRows=32
nColumns=34
inDegrees=no

Units are S.I. units (second, meters, Newtons, ...)
If the header above contains a line with 'inDegrees', this indicates whether rotational values are in degrees (yes) or radians (no).

endheader
time	pelvis_tilt	pelvis_list	pelvis_rotation	pelvis_tx	pelvis_ty	pelvis_tz	hip_flexion_r	hip_adduction_r	hip_rotation_r	knee_angle_r	ankle_angle_r	subtalar_angle_r	mtp_angle_r	hip_flexion_l	hip_adduction_l	hip_rotation_l	knee_angle_l	ankle_angle_l	subtalar_angle_l	mtp_angle_l	lumbar_extension	lumbar_bending	lumbar_rotation	arm_flex_r	arm_add_r	arm_rot_r	elbow_flex_r	pro_sup_r	arm_flex_l	arm_add_l	arm_rot_l	elbow_flex_l	pro_sup_l
3.34	-0.389253	0.0710816	-0.034354	-0.281299	0.845598	-0.547319	1.08528	-0.136499	-0.0177814	0.994267	0.49712	-0.131899	-0.126304	1.08707	-0.250881	-0.155889	0.986947	0.142748	-0.103763	-0.126313	-0.311731	0.0270445	-0.0178785	1.44574	-0.143605	0.347689	1.51924	1.76562	1.37278	-0.135199	0.115661	1.56088	1.59953
3.35	-0.399203	0.072858	-0.0331289	-0.28486	0.840467	-0.547246	1.11181	-0.137207	-0.0143046	1.01302	0.502754	-0.132735	-0.126304	1.11153	-0.251122	-0.152411	1.00213	0.146166	-0.106137	-0.126313	-0.317015	0.0262542	-0.0185397	1.46944	-0.138595	0.35226	1.53993	1.77185	1.39091	-0.132069	0.116951	1.58723	1.60717
3.36	-0.40897	0.0744981	-0.0317921	-0.288293	0.83539	-0.547177	1.13758	-0.137659	-0.0106755	1.03116	0.508623	-0.133986	-0.126304	1.13551	-0.251403	-0.148926	1.01698	0.149406	-0.107863	-0.126313	-0.32207	0.025618	-0.0190392	1.49195	-0.134218	0.357027	1.56017	1.77898	1.40774	-0.128978	0.118643	1.61297	1.61545
3.37	-0.418541	0.0759691	-0.030355	-0.291594	0.830372	-0.547111	1.16258	-0.13788	-0.00699425	1.04868	0.514618	-0.135554	-0.126304	1.15898	-0.251721	-0.145419	1.03148	0.152472	-0.109065	-0.126313	-0.326872	0.0251607	-0.0194073	1.51326	-0.13045	0.362008	1.57987	1.78693	1.42327	-0.125978	0.120748	1.63811	1.62405
3.38	-0.427856	0.0772718	-0.0288302	-0.29476	0.825422	-0.547048	1.18676	-0.137943	-0.00335164	1.06562	0.520616	-0.137284	-0.126304	1.18189	-0.252046	-0.141888	1.04565	0.155369	-0.109905	-0.126313	-0.331453	0.0248711	-0.0196846	1.53336	-0.127247	0.367226	1.59897	1.79522	1.43756	-0.123111	0.123287	1.66264	1.63253
3.39	-0.436827	0.0784336	-0.0272396	-0.297788	0.820544	-0.546989	1.21011	-0.13794	0.000182778	1.08207	0.526494	-0.138994	-0.126304	1.20414	-0.252345	-0.138353	1.05954	0.158099	-0.110549	-0.126313	-0.335874	0.0247111	-0.0199045	1.55228	-0.124563	0.372691	1.61743	1.8033	1.45067	-0.12041	0.126271	1.68652	1.64049
3.4	-0.445367	0.0794967	-0.0256208	-0.300677	0.815742	-0.546933	1.23261	-0.137957	0.00356654	1.09813	0.532158	-0.140513	-0.126304	1.22568	-0.252595	-0.134843	1.07322	0.160668	-0.111134	-0.126313	-0.340208	0.0246267	-0.0200796	1.57007	-0.122357	0.378395	1.6352	1.81074	1.4627	-0.117899	0.129697	1.70971	1.64773
3.41	-0.453407	0.0805025	-0.0240276	-0.303429	0.811016	-0.546878	1.25429	-0.138042	0.00678251	1.11388	0.53754	-0.141719	-0.126304	1.24648	-0.252812	-0.131387	1.08677	0.163087	-0.111742	-0.126313	-0.344514	0.0245604	-0.0201957	1.5868	-0.120598	0.384308	1.65226	1.81735	1.47377	-0.115601	0.133546	1.73213	1.65424
3.42	-0.460915	0.0814758	-0.0225283	-0.306045	0.806363	-0.546819	1.27517	-0.138189	0.00982966	1.12941	0.542611	-0.142563	-0.126304	1.26655	-0.253051	-0.128004	1.10026	0.16537	-0.112391	-0.126313	-0.348828	0.0244641	-0.0202108	1.60253	-0.119266	0.390382	1.66861	1.82321	1.48401	-0.113535	0.137786	1.75371	1.66026
3.43	-0.467897	0.0824155	-0.0212	-0.308532	0.801777	-0.546749	1.29532	-0.138332	0.0127111	1.14476	0.547369	-0.143061	-0.126304	1.28594	-0.253411	-0.12469	1.11376	0.167538	-0.113034	-0.126313	-0.353158	0.0243063	-0.0200612	1.61731	-0.118353	0.396562	1.68425	1.8286	1.49351	-0.111717	0.142371	1.77437	1.6662
3.44	-0.474395	0.0832939	-0.0201202	-0.310898	0.797253	-0.546657	1.31479	-0.13836	0.0154251	1.15996	0.551839	-0.143272	-0.126304	1.30475	-0.254014	-0.121417	1.12733	0.169612	-0.113576	-0.126313	-0.357484	0.0240748	-0.0196764	1.63121	-0.117862	0.402794	1.69918	1.83401	1.5024	-0.11016	0.147251	1.79404	1.67258
3.45	-0.480481	0.0840652	-0.019355	-0.313153	0.792783	-0.546532	1.33365	-0.138144	0.0179625	1.17497	0.556056	-0.143278	-0.126304	1.3231	-0.254985	-0.118138	1.141	0.171619	-0.113905	-0.126313	-0.361768	0.023773	-0.0189981	1.64429	-0.117794	0.409037	1.71342	1.83986	1.51078	-0.108886	0.152378	1.81266	1.67991
3.46	-0.486238	0.0846789	-0.018947	-0.315308	0.788362	-0.546367	1.35197	-0.137564	0.0203087	1.18976	0.560055	-0.143178	-0.126304	1.34111	-0.256412	-0.114786	1.15476	0.173586	-0.113925	-0.126313	-0.365968	0.0234157	-0.0179975	1.65662	-0.118145	0.415275	1.727	1.84637	1.51874	-0.107932	0.157721	1.83022	1.68849
3.47	-0.49175	0.0850919	-0.0189075	-0.317373	0.783986	-0.546155	1.3698	-0.13654	0.0224486	1.20429	0.563857	-0.143073	-0.126304	1.35885	-0.258329	-0.111291	1.16857	0.175543	-0.113585	-0.126313	-0.370047	0.0230246	-0.0166853	1.66826	-0.118898	0.421526	1.73995	1.85341	1.52639	-0.107343	0.163263	1.84673	1.69832
3.48	-0.497083	0.0852805	-0.0192121	-0.319358	0.779655	-0.545897	1.38718	-0.13505	0.0243684	1.21852	0.567469	-0.143053	-0.126304	1.37639	-0.260699	-0.107593	1.18237	0.177527	-0.112903	-0.126313	-0.373985	0.022625	-0.0151134	1.67926	-0.120018	0.427836	1.75235	1.86051	1.53379	-0.107173	0.168997	1.86228	1.70903
3.49	-0.502286	0.0852486	-0.0198024	-0.321271	0.775371	-0.545599	1.40414	-0.133145	0.0260595	1.2324	0.570893	-0.143171	-0.126304	1.39373	-0.263417	-0.103656	1.19607	0.179582	-0.11196	-0.126313	-0.377783	0.022241	-0.013366	1.68971	-0.121463	0.434268	1.76426	1.86707	1.54099	-0.107471	0.174911	1.87695	1.72002
3.5	-0.507391	0.0850299	-0.0205937	-0.323117	0.771138	-0.545272	1.42072	-0.130939	0.0275242	1.24593	0.574129	-0.14343	-0.126304	1.41083	-0.266328	-0.0994899	1.20956	0.181752	-0.110892	-0.126313	-0.381452	0.0218911	-0.0115424	1.69967	-0.123189	0.440881	1.77572	1.87258	1.54803	-0.10827	0.180979	1.89087	1.73068
3.51	-0.512415	0.0846835	-0.0214883	-0.324902	0.766962	-0.544933	1.43692	-0.128588	0.0287823	1.2591	0.57719	-0.143784	-0.126304	1.42765	-0.269258	-0.0951515	1.22276	0.184082	-0.109852	-0.126313	-0.385007	0.021585	-0.00973481	1.70922	-0.12516	0.447713	1.78672	1.87679	1.55491	-0.109577	0.187158	1.90412	1.74052
3.52	-0.51737	0.0842812	-0.0223922	-0.32663	0.762846	-0.544595	1.45279	-0.126249	0.0298724	1.27191	0.580098	-0.144165	-0.126304	1.44411	-0.272056	-0.09074	1.23558	0.18661	-0.10898	-0.126313	-0.388453	0.021324	-0.00801122	1.7184	-0.127354	0.454775	1.79723	1.87976	1.5616	-0.111374	0.193385	1.91674	1.7493
3.53	-0.522269	0.0838918	-0.0232298	-0.328302	0.758795	-0.544272	1.46835	-0.124051	0.0308446	1.2844	0.582879	-0.144507	-0.126304	1.46018	-0.274619	-0.0863787	1.24798	0.189363	-0.108364	-0.126313	-0.391786	0.0211012	-0.0064042	1.72727	-0.129764	0.462054	1.80719	1.88182	1.56807	-0.113619	0.199582	1.92875	1.75707
3.54	-0.527127	0.0835662	-0.0239542	-0.329921	0.754809	-0.543972	1.48364	-0.122071	0.0317456	1.29658	0.585558	-0.144761	-0.126304	1.47584	-0.276915	-0.0821882	1.25992	0.192352	-0.108019	-0.126313	-0.394983	0.0209038	-0.00490883	1.73583	-0.132393	0.469511	1.81655	1.88347	1.57426	-0.116246	0.205665	1.94011	1.76413
3.55	-0.531963	0.0833281	-0.0245479	-0.33149	0.750887	-0.543694	1.49869	-0.12033	0.032604	1.30845	0.588146	-0.144908	-0.126304	1.49108	-0.278979	-0.0782605	1.27142	0.19557	-0.107875	-0.126313	-0.398016	0.0207172	-0.00349009	1.74409	-0.135253	0.477089	1.82526	1.88534	1.58012	-0.11917	0.211555	1.95078	1.77092
3.56	-0.53679	0.0831715	-0.0250169	-0.333011	0.747028	-0.543437	1.51352	-0.118809	0.0334221	1.32004	0.590637	-0.144959	-0.126304	1.50595	-0.280894	-0.0746435	1.28248	0.198995	-0.10779	-0.126313	-0.400856	0.0205295	-0.00209993	1.75204	-0.138354	0.484718	1.83329	1.88806	1.58563	-0.122288	0.217192	1.96071	1.7778
3.57	-0.541613	0.0830677	-0.0253791	-0.334485	0.74323	-0.543191	1.52815	-0.117464	0.03418	1.33136	0.593004	-0.144949	-0.126304	1.52047	-0.28276	-0.0713404	1.29315	0.2026	-0.107589	-0.126313	-0.403488	0.0203356	-0.000697997	1.75967	-0.141693	0.492336	1.84063	1.89219	1.59078	-0.125503	0.222543	1.96988	1.78494
3.58	-0.546423	0.0829763	-0.0256516	-0.335914	0.739493	-0.542951	1.54255	-0.116253	0.0348475	1.34242	0.595212	-0.144925	-0.126304	1.53469	-0.284663	-0.0683214	1.30346	0.206356	-0.107103	-0.126313	-0.405914	0.020139	0.000731507	1.76696	-0.145258	0.499905	1.84729	1.89795	1.59558	-0.128727	0.227595	1.97828	1.79228
3.59	-0.551196	0.0828581	-0.0258407	-0.337298	0.735817	-0.542711	1.55671	-0.115151	0.0353972	1.35321	0.597224	-0.144926	-0.126304	1.5486	-0.286648	-0.0655357	1.31343	0.210227	-0.106207	-0.126313	-0.40816	0.0199513	0.00217353	1.77392	-0.149028	0.507437	1.85335	1.90498	1.60005	-0.131896	0.23235	1.98599	1.79953
3.6	-0.555895	0.0826853	-0.0259365	-0.338638	0.732206	-0.54247	1.57058	-0.114164	0.0358152	1.36373	0.599014	-0.144976	-0.126304	1.5622	-0.28871	-0.0629214	1.32308	0.214159	-0.104839	-0.126313	-0.410269	0.0197886	0.00358691	1.78056	-0.152979	0.514953	1.85889	1.91271	1.60423	-0.134963	0.236813	1.99306	1.80643
3.61	-0.560478	0.08245	-0.0259144	-0.339934	0.728666	-0.542231	1.5841	-0.113322	0.0361091	1.374	0.600575	-0.145069	-0.126304	1.57549	-0.290792	-0.060416	1.33245	0.218071	-0.102999	-0.126313	-0.412302	0.0196646	0.00491697	1.78691	-0.157088	0.52247	1.86402	1.92061	1.60815	-0.137902	0.240991	1.99958	1.81277
3.62	-0.564898	0.0821698	-0.0257413	-0.341187	0.725201	-0.541998	1.59723	-0.112674	0.0363136	1.38401	0.601924	-0.145173	-0.126304	1.58843	-0.2928	-0.0579695	1.34154	0.221852	-0.100751	-0.126313	-0.414331	0.0195805	0.00610861	1.79302	-0.161348	0.529994	1.86883	1.92828	1.61185	-0.1407	0.244901	2.00564	1.81845
3.63	-0.569111	0.0818911	-0.0253859	-0.342397	0.721819	-0.54178	1.60993	-0.112271	0.0364943	1.39376	0.603102	-0.145231	-0.126304	1.60098	-0.294625	-0.0555608	1.35038	0.225381	-0.0982125	-0.126313	-0.416432	0.0195147	0.00711615	1.79894	-0.165762	0.53754	1.87344	1.9353	1.61539	-0.143362	0.248571	2.01131	1.82336
3.64	-0.57308	0.0816848	-0.0248288	-0.343568	0.718526	-0.54158	1.62217	-0.112141	0.0367448	1.40327	0.604171	-0.145188	-0.126304	1.61309	-0.296168	-0.0532064	1.35895	0.22854	-0.0955412	-0.126313	-0.41868	0.0194175	0.00791097	1.80473	-0.170342	0.545119	1.87792	1.9414	1.6188	-0.145899	0.252037	2.01667	1.82746
3.65	-0.576786	0.0816332	-0.0240681	-0.344701	0.715326	-0.541404	1.63395	-0.112288	0.0371711	1.41254	0.6052	-0.145006	-0.126304	1.6247	-0.297362	-0.0509587	1.36726	0.231234	-0.0929071	-0.126313	-0.421129	0.0192167	0.00848623	1.81044	-0.175102	0.552732	1.88236	1.94642	1.62215	-0.14832	0.255332	2.02175	1.83074
